<svg xmlns="http://www.w3.org/2000/svg" xmlns:xlink="http://www.w3.org/1999/xlink" width="200" zoomAndPan="magnify" viewBox="0 0 150 262.499992" height="350" preserveAspectRatio="xMidYMid meet" version="1.0"><defs><clipPath id="237918bca2"><path d="M 61 18.042969 L 140 18.042969 L 140 113 L 61 113 Z M 61 18.042969 " clip-rule="nonzero"/></clipPath><clipPath id="e9dc7927d9"><path d="M 7.433594 100.457031 L 142.855469 100.457031 L 142.855469 252.34375 L 7.433594 252.34375 Z M 7.433594 100.457031 " clip-rule="nonzero"/></clipPath><clipPath id="9f9989a3ee"><path d="M 11 18.042969 L 90 18.042969 L 90 113 L 11 113 Z M 11 18.042969 " clip-rule="nonzero"/></clipPath></defs><g clip-path="url(#237918bca2)"><path fill="#006dd3" d="M 139.34375 18.039062 L 89.085938 112 L 61.472656 112.039062 L 111.761719 18.039062 L 139.34375 18.039062 " fill-opacity="1" fill-rule="nonzero"/></g><g clip-path="url(#e9dc7927d9)"><path fill="#edbf00" d="M 61.742188 111.238281 C 63.6875 108.769531 66.296875 108.207031 69.253906 108.207031 C 73.164062 108.207031 77.070312 108.207031 80.980469 108.207031 C 85.066406 108.207031 88.621094 109.707031 89.832031 113.957031 C 90.273438 115.507812 90.300781 117.304688 90.234375 119.085938 C 85.382812 117.988281 80.332031 117.402344 75.144531 117.402344 C 70.019531 117.402344 65.027344 117.972656 60.226562 119.050781 C 60.226562 118.757812 60.226562 118.460938 60.226562 118.167969 C 60.226562 115.734375 60.125 113.285156 61.742188 111.238281 Z M 97.726562 121.253906 C 97.726562 119.867188 97.726562 118.484375 97.726562 117.097656 C 97.726562 113.488281 97.0625 110.050781 94.917969 107.050781 C 92.046875 103.023438 87.351562 100.566406 82.378906 100.566406 C 77.554688 100.566406 72.726562 100.566406 67.902344 100.566406 C 62.453125 100.566406 57.640625 103.476562 54.738281 107.984375 C 52.882812 110.871094 52.5625 114.222656 52.5625 117.542969 C 52.5625 118.78125 52.5625 120.015625 52.5625 121.253906 C 26.269531 130.519531 7.433594 155.503906 7.433594 184.875 C 7.433594 222.140625 37.75 252.347656 75.144531 252.347656 C 112.539062 252.347656 142.855469 222.140625 142.855469 184.875 C 142.855469 155.503906 124.019531 130.519531 97.726562 121.253906 " fill-opacity="1" fill-rule="nonzero"/></g><path fill="#f9c900" d="M 132.847656 185.085938 C 132.847656 216.84375 107.015625 242.585938 75.144531 242.585938 C 43.277344 242.585938 17.441406 216.84375 17.441406 185.085938 C 17.441406 153.332031 43.277344 127.585938 75.144531 127.585938 C 107.015625 127.585938 132.847656 153.332031 132.847656 185.085938 " fill-opacity="1" fill-rule="nonzero"/><path fill="#ffffff" d="M 131.359375 185.085938 C 131.257812 204.535156 121.074219 222.644531 104.476562 232.882812 C 87.707031 243.226562 66.109375 243.695312 48.734375 234.546875 C 31.625 225.539062 20.320312 207.839844 19.042969 188.65625 C 17.75 169.238281 27.066406 150.277344 43 139.125 C 59.121094 127.839844 80.640625 126.011719 98.53125 134.128906 C 116.054688 142.078125 128.484375 159.003906 130.925781 178.007812 C 131.226562 180.355469 131.34375 182.722656 131.359375 185.085938 C 131.367188 187.003906 134.347656 187.003906 134.339844 185.085938 C 134.242188 166.109375 125.058594 148.394531 109.703125 137.203125 C 94.183594 125.886719 73.390625 123.160156 55.328125 129.492188 C 37.695312 135.675781 23.941406 150.296875 18.464844 168.035156 C 12.804688 186.367188 16.933594 206.554688 28.667969 221.605469 C 40.359375 236.597656 59.191406 244.863281 78.132812 243.996094 C 97.003906 243.132812 114.425781 232.871094 124.78125 217.230469 C 131.066406 207.738281 134.28125 196.425781 134.339844 185.085938 C 134.347656 183.171875 131.367188 183.171875 131.359375 185.085938 " fill-opacity="1" fill-rule="nonzero"/><g clip-path="url(#9f9989a3ee)"><path fill="#0095ff" d="M 11.300781 18.039062 L 61.558594 112 L 89.171875 112.039062 L 38.882812 18.039062 L 11.300781 18.039062 " fill-opacity="1" fill-rule="nonzero"/></g><path fill="#ddb300" d="M 90.382812 196.027344 C 90.382812 197.734375 90.324219 199.503906 90.261719 201.09375 C 85.851562 201.09375 80.703125 201.09375 76.539062 201.09375 C 72.554688 201.09375 68.144531 201.152344 62.9375 201.152344 C 62.9375 199.503906 62.9375 197.734375 63.058594 196.027344 L 71.636719 195.84375 C 71.820312 195.84375 71.941406 195.660156 71.941406 195.476562 C 71.941406 187.722656 71.941406 177.832031 71.941406 171.421875 C 69 171.789062 66.183594 172.152344 62.507812 172.640625 C 62.199219 170.992188 61.894531 169.222656 61.710938 167.574219 C 68.082031 165.804688 81.316406 160.859375 81.929688 160.859375 C 82.050781 160.859375 82.175781 160.921875 82.175781 161.164062 C 82.175781 170.808594 81.988281 185.035156 81.929688 195.84375 L 90.382812 196.027344 " fill-opacity="1" fill-rule="nonzero"/><path fill="#ddb300" d="M 55.65625 160.371094 C 56.777344 160.820312 57.953125 161.105469 59.066406 161.582031 C 59.890625 161.933594 60.644531 162.398438 61.367188 162.914062 L 61.425781 162.976562 C 61.417969 162.964844 61.410156 162.953125 61.402344 162.9375 C 61.414062 162.949219 61.429688 162.957031 61.4375 162.964844 L 61.382812 162.902344 C 60.929688 162.140625 60.53125 161.347656 60.25 160.496094 C 59.871094 159.347656 59.6875 158.15625 59.335938 157.003906 C 58.894531 155.558594 58.085938 154.480469 57 153.4375 C 54.882812 151.398438 52.808594 150.84375 50.007812 150.527344 L 49.992188 150.511719 C 49.992188 150.519531 49.996094 150.523438 49.996094 150.527344 C 49.992188 150.527344 49.984375 150.527344 49.980469 150.527344 L 49.996094 150.539062 C 50.066406 153.351562 50.445312 155.460938 52.296875 157.746094 C 53.242188 158.914062 54.253906 159.808594 55.65625 160.371094 " fill-opacity="1" fill-rule="nonzero"/><path fill="#ddb300" d="M 53.917969 139.847656 C 54.949219 139.214844 56.058594 138.738281 57.074219 138.082031 C 57.828125 137.597656 58.496094 137.011719 59.125 136.382812 L 59.167969 136.3125 C 59.164062 136.328125 59.160156 136.339844 59.152344 136.351562 C 59.164062 136.34375 59.175781 136.332031 59.183594 136.320312 L 59.136719 136.394531 C 58.820312 137.222656 58.5625 138.070312 58.425781 138.953125 C 58.246094 140.148438 58.261719 141.351562 58.109375 142.550781 C 57.917969 144.046875 57.304688 145.25 56.414062 146.457031 C 54.664062 148.824219 52.710938 149.714844 50.003906 150.496094 L 49.992188 150.511719 C 49.992188 150.507812 49.992188 150.503906 49.992188 150.5 C 49.988281 150.5 49.984375 150.503906 49.980469 150.503906 L 49.992188 150.484375 C 49.589844 147.703125 49.605469 145.558594 51.046875 142.996094 C 51.785156 141.6875 52.632812 140.636719 53.917969 139.847656 " fill-opacity="1" fill-rule="nonzero"/><path fill="#ddb300" d="M 48.980469 166.796875 C 50.1875 166.878906 51.390625 166.789062 52.597656 166.898438 C 53.492188 166.976562 54.355469 167.1875 55.203125 167.453125 L 55.273438 167.496094 C 55.265625 167.484375 55.253906 167.476562 55.242188 167.464844 C 55.257812 167.46875 55.269531 167.472656 55.285156 167.476562 L 55.210938 167.4375 C 54.542969 166.851562 53.917969 166.21875 53.390625 165.5 C 52.671875 164.523438 52.128906 163.449219 51.4375 162.460938 C 50.570312 161.222656 49.46875 160.441406 48.113281 159.785156 C 45.464844 158.503906 43.324219 158.613281 40.5625 159.175781 L 40.542969 159.167969 C 40.546875 159.171875 40.546875 159.175781 40.550781 159.179688 C 40.542969 159.183594 40.539062 159.183594 40.535156 159.183594 L 40.554688 159.195312 C 41.496094 161.84375 42.503906 163.734375 44.972656 165.335938 C 46.238281 166.15625 47.472656 166.695312 48.980469 166.796875 " fill-opacity="1" fill-rule="nonzero"/><path fill="#ddb300" d="M 40.976562 147.8125 C 41.761719 146.894531 42.667969 146.097656 43.433594 145.160156 C 43.996094 144.464844 44.453125 143.703125 44.851562 142.910156 L 44.875 142.832031 C 44.875 142.847656 44.871094 142.859375 44.871094 142.875 C 44.878906 142.863281 44.886719 142.851562 44.890625 142.835938 L 44.871094 142.917969 C 44.824219 143.804688 44.839844 144.691406 44.984375 145.574219 C 45.183594 146.765625 45.574219 147.90625 45.800781 149.089844 C 46.082031 150.574219 45.867188 151.90625 45.394531 153.332031 C 44.460938 156.121094 42.882812 157.570312 40.550781 159.148438 L 40.542969 159.167969 C 40.542969 159.164062 40.539062 159.160156 40.539062 159.15625 C 40.535156 159.160156 40.53125 159.160156 40.527344 159.164062 L 40.53125 159.144531 C 39.289062 156.617188 38.640625 154.574219 39.21875 151.695312 C 39.515625 150.222656 39.996094 148.960938 40.976562 147.8125 " fill-opacity="1" fill-rule="nonzero"/><path fill="#ddb300" d="M 44.621094 174.96875 C 45.796875 174.671875 46.910156 174.214844 48.09375 173.945312 C 48.964844 173.75 49.851562 173.679688 50.742188 173.671875 L 50.824219 173.6875 C 50.808594 173.683594 50.796875 173.675781 50.785156 173.671875 C 50.796875 173.671875 50.8125 173.671875 50.828125 173.671875 L 50.746094 173.65625 C 49.929688 173.304688 49.140625 172.894531 48.410156 172.371094 C 47.429688 171.667969 46.578125 170.808594 45.613281 170.082031 C 44.40625 169.175781 43.121094 168.773438 41.628906 168.566406 C 38.710938 168.160156 36.707031 168.929688 34.257812 170.316406 L 34.238281 170.3125 C 34.238281 170.316406 34.242188 170.320312 34.246094 170.324219 C 34.242188 170.328125 34.238281 170.332031 34.234375 170.332031 L 34.253906 170.335938 C 35.96875 172.570312 37.515625 174.054688 40.359375 174.816406 C 41.8125 175.203125 43.15625 175.335938 44.621094 174.96875 " fill-opacity="1" fill-rule="nonzero"/><path fill="#ddb300" d="M 31.132812 159.382812 C 31.59375 158.265625 32.210938 157.230469 32.648438 156.101562 C 32.96875 155.265625 33.167969 154.402344 33.300781 153.523438 L 33.296875 153.441406 C 33.300781 153.457031 33.304688 153.46875 33.308594 153.484375 C 33.3125 153.46875 33.3125 153.453125 33.316406 153.441406 L 33.320312 153.523438 C 33.550781 154.382812 33.839844 155.21875 34.253906 156.011719 C 34.808594 157.089844 35.535156 158.050781 36.117188 159.109375 C 36.839844 160.433594 37.050781 161.765625 37.042969 163.269531 C 37.019531 166.207031 35.96875 168.074219 34.234375 170.292969 L 34.238281 170.3125 C 34.234375 170.3125 34.230469 170.308594 34.226562 170.304688 C 34.222656 170.308594 34.222656 170.3125 34.21875 170.316406 L 34.21875 170.292969 C 32.253906 168.277344 31.003906 166.535156 30.664062 163.613281 C 30.488281 162.121094 30.554688 160.773438 31.132812 159.382812 " fill-opacity="1" fill-rule="nonzero"/><path fill="#ddb300" d="M 43.007812 184.082031 C 44.03125 183.441406 44.949219 182.660156 45.988281 182.039062 C 46.757812 181.582031 47.582031 181.242188 48.425781 180.960938 L 48.507812 180.953125 C 48.492188 180.953125 48.480469 180.949219 48.464844 180.949219 C 48.480469 180.945312 48.492188 180.941406 48.503906 180.9375 L 48.421875 180.945312 C 47.535156 180.863281 46.660156 180.714844 45.804688 180.445312 C 44.652344 180.078125 43.578125 179.523438 42.4375 179.132812 C 41.007812 178.640625 39.660156 178.652344 38.175781 178.917969 C 35.277344 179.433594 33.609375 180.78125 31.707031 182.859375 L 31.6875 182.859375 C 31.691406 182.863281 31.695312 182.867188 31.699219 182.867188 C 31.695312 182.871094 31.691406 182.875 31.691406 182.878906 L 31.710938 182.875 C 34.03125 184.46875 35.964844 185.40625 38.902344 185.253906 C 40.40625 185.175781 41.726562 184.882812 43.007812 184.082031 " fill-opacity="1" fill-rule="nonzero"/><path fill="#ddb300" d="M 25.351562 173.421875 C 25.445312 172.214844 25.710938 171.039062 25.777344 169.832031 C 25.824219 168.941406 25.746094 168.058594 25.601562 167.179688 L 25.570312 167.105469 C 25.578125 167.113281 25.589844 167.128906 25.59375 167.140625 C 25.59375 167.125 25.589844 167.109375 25.589844 167.097656 L 25.617188 167.175781 C 26.101562 167.921875 26.636719 168.628906 27.277344 169.253906 C 28.136719 170.105469 29.125 170.796875 30.007812 171.625 C 31.105469 172.660156 31.71875 173.859375 32.171875 175.292969 C 33.0625 178.097656 32.640625 180.195312 31.679688 182.839844 L 31.6875 182.859375 C 31.683594 182.859375 31.679688 182.855469 31.675781 182.855469 C 31.675781 182.859375 31.671875 182.863281 31.671875 182.867188 L 31.664062 182.847656 C 29.171875 181.535156 27.445312 180.261719 26.214844 177.59375 C 25.585938 176.226562 25.230469 174.925781 25.351562 173.421875 " fill-opacity="1" fill-rule="nonzero"/><path fill="#ddb300" d="M 44.289062 193.25 C 45.0625 192.324219 45.699219 191.296875 46.496094 190.386719 C 47.085938 189.714844 47.761719 189.140625 48.476562 188.609375 L 48.554688 188.578125 C 48.539062 188.578125 48.527344 188.582031 48.511719 188.585938 C 48.523438 188.578125 48.535156 188.570312 48.546875 188.558594 L 48.46875 188.59375 C 47.601562 188.789062 46.722656 188.921875 45.828125 188.925781 C 44.617188 188.933594 43.425781 188.738281 42.214844 188.714844 C 40.703125 188.691406 39.425781 189.121094 38.097656 189.828125 C 35.5 191.214844 34.332031 193.007812 33.167969 195.570312 L 33.148438 195.578125 C 33.152344 195.582031 33.15625 195.582031 33.160156 195.582031 C 33.15625 195.585938 33.15625 195.589844 33.15625 195.59375 L 33.175781 195.585938 C 35.875 196.386719 38 196.679688 40.75 195.628906 C 42.15625 195.089844 43.320312 194.40625 44.289062 193.25 " fill-opacity="1" fill-rule="nonzero"/><path fill="#ddb300" d="M 24.199219 188.554688 C 23.914062 187.382812 23.804688 186.183594 23.492188 185.011719 C 23.261719 184.148438 22.914062 183.335938 22.503906 182.542969 L 22.453125 182.480469 C 22.464844 182.488281 22.476562 182.496094 22.484375 182.507812 C 22.480469 182.496094 22.472656 182.480469 22.46875 182.46875 L 22.519531 182.535156 C 23.210938 183.089844 23.941406 183.597656 24.738281 184 C 25.824219 184.542969 26.976562 184.894531 28.070312 185.410156 C 29.4375 186.058594 30.390625 187.007812 31.265625 188.234375 C 32.980469 190.625 33.226562 192.75 33.132812 195.5625 L 33.148438 195.578125 C 33.140625 195.578125 33.136719 195.578125 33.132812 195.578125 C 33.132812 195.582031 33.132812 195.585938 33.132812 195.589844 L 33.121094 195.574219 C 30.34375 195.09375 28.308594 194.417969 26.3125 192.257812 C 25.292969 191.148438 24.550781 190.023438 24.199219 188.554688 " fill-opacity="1" fill-rule="nonzero"/><path fill="#ddb300" d="M 48.347656 201.570312 C 48.796875 200.453125 49.082031 199.28125 49.558594 198.167969 C 49.914062 197.347656 50.378906 196.589844 50.894531 195.867188 L 50.957031 195.8125 C 50.945312 195.820312 50.933594 195.828125 50.921875 195.835938 C 50.929688 195.824219 50.9375 195.8125 50.945312 195.800781 L 50.882812 195.855469 C 50.117188 196.308594 49.324219 196.707031 48.472656 196.984375 C 47.324219 197.367188 46.128906 197.546875 44.972656 197.902344 C 43.527344 198.339844 42.445312 199.144531 41.398438 200.226562 C 39.359375 202.347656 38.800781 204.414062 38.488281 207.210938 L 38.472656 207.226562 C 38.476562 207.226562 38.480469 207.226562 38.484375 207.226562 C 38.484375 207.226562 38.484375 207.234375 38.484375 207.238281 L 38.5 207.222656 C 41.316406 207.152344 43.429688 206.773438 45.71875 204.925781 C 46.886719 203.980469 47.785156 202.972656 48.347656 201.570312 " fill-opacity="1" fill-rule="nonzero"/><path fill="#ddb300" d="M 27.789062 203.304688 C 27.15625 202.277344 26.675781 201.171875 26.019531 200.15625 C 25.535156 199.402344 24.949219 198.734375 24.316406 198.109375 L 24.246094 198.066406 C 24.261719 198.070312 24.273438 198.074219 24.285156 198.082031 C 24.277344 198.070312 24.265625 198.0625 24.257812 198.050781 L 24.328125 198.09375 C 25.15625 198.414062 26.007812 198.671875 26.890625 198.808594 C 28.089844 198.988281 29.296875 198.96875 30.496094 199.121094 C 31.996094 199.3125 33.199219 199.925781 34.410156 200.820312 C 36.777344 202.5625 37.675781 204.511719 38.457031 207.214844 L 38.472656 207.226562 C 38.46875 207.226562 38.464844 207.226562 38.457031 207.226562 C 38.460938 207.230469 38.460938 207.234375 38.464844 207.242188 L 38.445312 207.226562 C 35.65625 207.628906 33.511719 207.613281 30.941406 206.171875 C 29.628906 205.4375 28.578125 204.59375 27.789062 203.304688 " fill-opacity="1" fill-rule="nonzero"/><path fill="#ddb300" d="M 54.785156 208.234375 C 54.867188 207.03125 54.773438 205.828125 54.882812 204.625 C 54.964844 203.734375 55.171875 202.871094 55.441406 202.023438 L 55.484375 201.953125 C 55.472656 201.964844 55.464844 201.972656 55.453125 201.984375 C 55.460938 201.972656 55.464844 201.957031 55.46875 201.945312 L 55.425781 202.015625 C 54.839844 202.683594 54.207031 203.304688 53.484375 203.835938 C 52.507812 204.550781 51.429688 205.09375 50.4375 205.785156 C 49.199219 206.648438 48.417969 207.75 47.761719 209.101562 C 46.476562 211.746094 46.585938 213.886719 47.152344 216.640625 L 47.140625 216.660156 C 47.148438 216.65625 47.152344 216.65625 47.15625 216.652344 C 47.15625 216.660156 47.15625 216.660156 47.15625 216.667969 L 47.167969 216.648438 C 49.824219 215.710938 51.71875 214.699219 53.320312 212.234375 C 54.140625 210.976562 54.683594 209.742188 54.785156 208.234375 " fill-opacity="1" fill-rule="nonzero"/><path fill="#ddb300" d="M 35.765625 216.226562 C 34.847656 215.441406 34.050781 214.539062 33.109375 213.773438 C 32.414062 213.210938 31.652344 212.757812 30.859375 212.355469 L 30.777344 212.335938 C 30.792969 212.335938 30.804688 212.335938 30.820312 212.339844 C 30.808594 212.332031 30.792969 212.324219 30.78125 212.320312 L 30.863281 212.339844 C 31.75 212.386719 32.640625 212.367188 33.523438 212.222656 C 34.71875 212.027344 35.859375 211.636719 37.046875 211.410156 C 38.535156 211.132812 39.867188 211.34375 41.296875 211.816406 C 44.089844 212.746094 45.542969 214.320312 47.121094 216.652344 L 47.140625 216.660156 C 47.136719 216.660156 47.132812 216.664062 47.128906 216.664062 C 47.132812 216.667969 47.136719 216.671875 47.136719 216.675781 L 47.117188 216.671875 C 44.589844 217.910156 42.542969 218.558594 39.65625 217.980469 C 38.179688 217.683594 36.917969 217.207031 35.765625 216.226562 " fill-opacity="1" fill-rule="nonzero"/><path fill="#ddb300" d="M 62.96875 212.585938 C 62.671875 211.414062 62.214844 210.300781 61.945312 209.121094 C 61.746094 208.25 61.679688 207.367188 61.671875 206.476562 L 61.6875 206.394531 C 61.683594 206.410156 61.675781 206.421875 61.671875 206.4375 C 61.671875 206.421875 61.671875 206.40625 61.671875 206.394531 L 61.652344 206.476562 C 61.300781 207.289062 60.894531 208.078125 60.371094 208.804688 C 59.660156 209.785156 58.804688 210.632812 58.078125 211.597656 C 57.167969 212.800781 56.765625 214.089844 56.554688 215.578125 C 56.152344 218.488281 56.921875 220.488281 58.3125 222.933594 L 58.308594 222.953125 C 58.3125 222.953125 58.316406 222.949219 58.316406 222.945312 C 58.320312 222.953125 58.324219 222.953125 58.324219 222.957031 L 58.328125 222.9375 C 60.566406 221.226562 62.054688 219.683594 62.816406 216.84375 C 63.207031 215.390625 63.335938 214.050781 62.96875 212.585938 " fill-opacity="1" fill-rule="nonzero"/><path fill="#ddb300" d="M 47.355469 226.054688 C 46.238281 225.59375 45.199219 224.976562 44.070312 224.542969 C 43.234375 224.21875 42.367188 224.023438 41.488281 223.886719 L 41.40625 223.890625 C 41.421875 223.890625 41.433594 223.882812 41.449219 223.878906 C 41.433594 223.878906 41.421875 223.875 41.40625 223.875 L 41.488281 223.871094 C 42.347656 223.640625 43.1875 223.347656 43.984375 222.9375 C 45.058594 222.382812 46.023438 221.660156 47.082031 221.078125 C 48.410156 220.355469 49.742188 220.144531 51.25 220.15625 C 54.191406 220.179688 56.0625 221.226562 58.289062 222.957031 L 58.308594 222.953125 C 58.304688 222.957031 58.300781 222.960938 58.296875 222.964844 C 58.300781 222.96875 58.304688 222.96875 58.308594 222.972656 L 58.289062 222.972656 C 56.265625 224.933594 54.519531 226.179688 51.597656 226.523438 C 50.101562 226.695312 48.753906 226.628906 47.355469 226.054688 " fill-opacity="1" fill-rule="nonzero"/><path fill="#ddb300" d="M 72.097656 214.199219 C 71.457031 213.179688 70.671875 212.261719 70.054688 211.222656 C 69.597656 210.453125 69.257812 209.632812 68.972656 208.792969 L 68.964844 208.707031 C 68.964844 208.722656 68.960938 208.738281 68.960938 208.75 C 68.957031 208.738281 68.953125 208.726562 68.945312 208.710938 L 68.957031 208.792969 C 68.875 209.679688 68.730469 210.550781 68.457031 211.402344 C 68.089844 212.558594 67.535156 213.628906 67.140625 214.769531 C 66.648438 216.195312 66.664062 217.542969 66.925781 219.023438 C 67.441406 221.914062 68.792969 223.582031 70.875 225.476562 L 70.875 225.5 C 70.878906 225.496094 70.882812 225.492188 70.882812 225.488281 C 70.886719 225.492188 70.890625 225.496094 70.894531 225.496094 L 70.890625 225.476562 C 72.488281 223.160156 73.425781 221.230469 73.273438 218.296875 C 73.191406 216.796875 72.902344 215.480469 72.097656 214.199219 " fill-opacity="1" fill-rule="nonzero"/><path fill="#ddb300" d="M 61.417969 231.824219 C 60.214844 231.730469 59.035156 231.46875 57.824219 231.402344 C 56.933594 231.351562 56.046875 231.433594 55.167969 231.574219 L 55.09375 231.605469 C 55.105469 231.597656 55.117188 231.589844 55.128906 231.582031 C 55.113281 231.582031 55.097656 231.585938 55.085938 231.585938 L 55.164062 231.558594 C 55.910156 231.074219 56.617188 230.539062 57.246094 229.902344 C 58.097656 229.042969 58.792969 228.058594 59.621094 227.179688 C 60.660156 226.078125 61.859375 225.46875 63.296875 225.011719 C 66.101562 224.128906 68.207031 224.546875 70.855469 225.507812 L 70.875 225.5 C 70.875 225.503906 70.871094 225.507812 70.871094 225.511719 C 70.875 225.511719 70.878906 225.515625 70.882812 225.515625 L 70.863281 225.523438 C 69.546875 228.011719 68.273438 229.734375 65.597656 230.960938 C 64.230469 231.589844 62.925781 231.941406 61.417969 231.824219 " fill-opacity="1" fill-rule="nonzero"/><path fill="#ddb300" d="M 96.4375 160.875 C 95.316406 161.328125 94.144531 161.613281 93.03125 162.089844 C 92.207031 162.4375 91.449219 162.902344 90.726562 163.421875 L 90.667969 163.480469 C 90.675781 163.46875 90.683594 163.457031 90.691406 163.445312 C 90.679688 163.453125 90.667969 163.460938 90.65625 163.46875 L 90.710938 163.410156 C 91.164062 162.644531 91.5625 161.851562 91.84375 161.003906 C 92.226562 159.855469 92.40625 158.664062 92.761719 157.507812 C 93.203125 156.066406 94.007812 154.984375 95.09375 153.941406 C 97.214844 151.902344 99.285156 151.351562 102.085938 151.035156 L 102.101562 151.019531 C 102.101562 151.023438 102.101562 151.027344 102.101562 151.03125 C 102.105469 151.03125 102.109375 151.03125 102.113281 151.03125 L 102.097656 151.046875 C 102.027344 153.859375 101.648438 155.96875 99.796875 158.253906 C 98.851562 159.421875 97.839844 160.316406 96.4375 160.875 " fill-opacity="1" fill-rule="nonzero"/><path fill="#ddb300" d="M 98.175781 140.351562 C 97.144531 139.722656 96.035156 139.246094 95.019531 138.585938 C 94.265625 138.101562 93.597656 137.515625 92.96875 136.886719 L 92.925781 136.820312 C 92.929688 136.832031 92.933594 136.84375 92.941406 136.859375 C 92.929688 136.847656 92.921875 136.835938 92.910156 136.828125 L 92.957031 136.898438 C 93.273438 137.726562 93.53125 138.574219 93.667969 139.457031 C 93.851562 140.65625 93.832031 141.859375 93.984375 143.054688 C 94.175781 144.554688 94.789062 145.753906 95.683594 146.964844 C 97.429688 149.328125 99.382812 150.222656 102.089844 151 L 102.101562 151.019531 C 102.101562 151.015625 102.101562 151.007812 102.101562 151.003906 C 102.105469 151.007812 102.113281 151.007812 102.117188 151.007812 L 102.105469 150.992188 C 102.503906 148.207031 102.488281 146.066406 101.046875 143.503906 C 100.308594 142.191406 99.464844 141.140625 98.175781 140.351562 " fill-opacity="1" fill-rule="nonzero"/><path fill="#ddb300" d="M 103.113281 167.300781 C 101.90625 167.382812 100.703125 167.292969 99.496094 167.402344 C 98.605469 167.484375 97.738281 167.691406 96.894531 167.957031 L 96.820312 168 C 96.832031 167.992188 96.839844 167.980469 96.851562 167.972656 C 96.839844 167.976562 96.824219 167.980469 96.8125 167.984375 L 96.882812 167.941406 C 97.550781 167.355469 98.175781 166.726562 98.707031 166.003906 C 99.421875 165.03125 99.964844 163.953125 100.65625 162.964844 C 101.523438 161.726562 102.625 160.945312 103.980469 160.292969 C 106.628906 159.007812 108.773438 159.117188 111.53125 159.683594 L 111.550781 159.671875 C 111.546875 159.679688 111.546875 159.683594 111.546875 159.6875 C 111.550781 159.6875 111.554688 159.6875 111.558594 159.6875 L 111.539062 159.699219 C 110.601562 162.351562 109.589844 164.242188 107.121094 165.84375 C 105.859375 166.660156 104.621094 167.199219 103.113281 167.300781 " fill-opacity="1" fill-rule="nonzero"/><path fill="#ddb300" d="M 111.117188 148.320312 C 110.332031 147.398438 109.425781 146.605469 108.660156 145.664062 C 108.097656 144.972656 107.640625 144.210938 107.242188 143.417969 L 107.21875 143.339844 C 107.21875 143.351562 107.222656 143.367188 107.222656 143.378906 C 107.214844 143.367188 107.210938 143.355469 107.203125 143.34375 L 107.222656 143.421875 C 107.269531 144.308594 107.253906 145.195312 107.109375 146.078125 C 106.910156 147.269531 106.519531 148.410156 106.296875 149.597656 C 106.015625 151.082031 106.226562 152.410156 106.699219 153.835938 C 107.632812 156.625 109.210938 158.078125 111.546875 159.652344 L 111.550781 159.671875 C 111.550781 159.671875 111.554688 159.664062 111.554688 159.660156 C 111.558594 159.664062 111.5625 159.667969 111.566406 159.667969 L 111.5625 159.648438 C 112.804688 157.125 113.453125 155.082031 112.875 152.199219 C 112.578125 150.726562 112.097656 149.464844 111.117188 148.320312 " fill-opacity="1" fill-rule="nonzero"/><path fill="#ddb300" d="M 107.472656 175.472656 C 106.296875 175.179688 105.183594 174.71875 104 174.453125 C 103.128906 174.253906 102.242188 174.183594 101.351562 174.175781 L 101.269531 174.195312 C 101.285156 174.1875 101.296875 174.183594 101.308594 174.175781 C 101.296875 174.175781 101.28125 174.175781 101.269531 174.175781 L 101.351562 174.160156 C 102.167969 173.808594 102.957031 173.402344 103.683594 172.878906 C 104.667969 172.171875 105.515625 171.316406 106.480469 170.589844 C 107.6875 169.679688 108.976562 169.277344 110.464844 169.070312 C 113.382812 168.667969 115.386719 169.433594 117.835938 170.824219 L 117.855469 170.820312 C 117.855469 170.824219 117.851562 170.828125 117.847656 170.832031 C 117.855469 170.832031 117.855469 170.835938 117.859375 170.835938 L 117.839844 170.839844 C 116.125 173.074219 114.578125 174.558594 111.734375 175.320312 C 110.28125 175.710938 108.9375 175.839844 107.472656 175.472656 " fill-opacity="1" fill-rule="nonzero"/><path fill="#ddb300" d="M 120.960938 159.886719 C 120.5 158.769531 119.882812 157.734375 119.449219 156.609375 C 119.125 155.773438 118.929688 154.90625 118.792969 154.03125 L 118.796875 153.949219 C 118.792969 153.960938 118.789062 153.972656 118.785156 153.988281 C 118.78125 153.972656 118.78125 153.960938 118.777344 153.945312 L 118.773438 154.03125 C 118.542969 154.886719 118.253906 155.726562 117.84375 156.519531 C 117.285156 157.59375 116.558594 158.554688 115.980469 159.613281 C 115.253906 160.941406 115.042969 162.269531 115.054688 163.773438 C 115.074219 166.710938 116.128906 168.582031 117.859375 170.800781 L 117.855469 170.820312 C 117.859375 170.816406 117.863281 170.8125 117.867188 170.808594 C 117.871094 170.8125 117.875 170.816406 117.875 170.820312 L 117.878906 170.800781 C 119.839844 168.78125 121.089844 167.039062 121.429688 164.121094 C 121.605469 162.628906 121.539062 161.28125 120.960938 159.886719 " fill-opacity="1" fill-rule="nonzero"/><path fill="#ddb300" d="M 109.089844 184.585938 C 108.0625 183.945312 107.144531 183.164062 106.105469 182.546875 C 105.335938 182.089844 104.515625 181.75 103.671875 181.46875 L 103.585938 181.457031 C 103.601562 181.457031 103.617188 181.457031 103.628906 181.453125 C 103.617188 181.449219 103.605469 181.445312 103.589844 181.441406 L 103.671875 181.449219 C 104.558594 181.367188 105.433594 181.222656 106.285156 180.949219 C 107.441406 180.582031 108.515625 180.03125 109.65625 179.636719 C 111.085938 179.144531 112.4375 179.160156 113.917969 179.425781 C 116.816406 179.9375 118.484375 181.289062 120.386719 183.363281 L 120.40625 183.367188 C 120.402344 183.367188 120.398438 183.371094 120.394531 183.375 C 120.398438 183.378906 120.402344 183.378906 120.40625 183.382812 L 120.382812 183.382812 C 118.0625 184.972656 116.132812 185.910156 113.191406 185.757812 C 111.6875 185.679688 110.367188 185.390625 109.089844 184.585938 " fill-opacity="1" fill-rule="nonzero"/><path fill="#ddb300" d="M 126.742188 173.925781 C 126.648438 172.722656 126.386719 171.546875 126.316406 170.339844 C 126.269531 169.445312 126.351562 168.5625 126.492188 167.6875 L 126.523438 167.609375 C 126.515625 167.621094 126.507812 167.632812 126.5 167.644531 C 126.5 167.628906 126.503906 167.617188 126.503906 167.601562 L 126.476562 167.679688 C 125.992188 168.425781 125.457031 169.132812 124.820312 169.761719 C 123.957031 170.609375 122.96875 171.300781 122.085938 172.128906 C 120.988281 173.164062 120.375 174.367188 119.921875 175.800781 C 119.03125 178.601562 119.453125 180.703125 120.414062 183.347656 L 120.40625 183.367188 C 120.410156 183.363281 120.414062 183.359375 120.417969 183.359375 C 120.421875 183.363281 120.421875 183.367188 120.421875 183.375 L 120.429688 183.355469 C 122.921875 182.039062 124.648438 180.765625 125.878906 178.097656 C 126.507812 176.730469 126.863281 175.429688 126.742188 173.925781 " fill-opacity="1" fill-rule="nonzero"/><path fill="#ddb300" d="M 107.804688 193.753906 C 107.03125 192.828125 106.394531 191.800781 105.597656 190.890625 C 105.007812 190.21875 104.332031 189.644531 103.617188 189.117188 L 103.542969 189.082031 C 103.554688 189.085938 103.570312 189.089844 103.582031 189.089844 C 103.570312 189.082031 103.558594 189.074219 103.550781 189.066406 L 103.625 189.101562 C 104.492188 189.296875 105.371094 189.429688 106.265625 189.433594 C 107.476562 189.4375 108.667969 189.246094 109.878906 189.222656 C 111.390625 189.195312 112.667969 189.625 113.996094 190.332031 C 116.59375 191.71875 117.761719 193.515625 118.929688 196.074219 L 118.945312 196.085938 C 118.941406 196.085938 118.9375 196.085938 118.933594 196.085938 C 118.933594 196.09375 118.9375 196.097656 118.941406 196.101562 L 118.921875 196.09375 C 116.21875 196.890625 114.09375 197.1875 111.34375 196.132812 C 109.9375 195.59375 108.773438 194.914062 107.804688 193.753906 " fill-opacity="1" fill-rule="nonzero"/><path fill="#ddb300" d="M 127.898438 189.058594 C 128.179688 187.886719 128.289062 186.6875 128.601562 185.519531 C 128.832031 184.65625 129.179688 183.839844 129.589844 183.050781 L 129.640625 182.984375 C 129.628906 182.996094 129.617188 183.003906 129.609375 183.011719 C 129.613281 183 129.621094 182.988281 129.625 182.972656 L 129.574219 183.039062 C 128.882812 183.597656 128.15625 184.105469 127.355469 184.507812 C 126.269531 185.046875 125.117188 185.402344 124.023438 185.917969 C 122.65625 186.5625 121.703125 187.515625 120.828125 188.738281 C 119.113281 191.128906 118.863281 193.257812 118.960938 196.070312 L 118.945312 196.085938 C 118.953125 196.085938 118.957031 196.082031 118.960938 196.082031 C 118.960938 196.085938 118.960938 196.089844 118.960938 196.097656 L 118.972656 196.078125 C 121.75 195.597656 123.785156 194.921875 125.78125 192.761719 C 126.804688 191.65625 127.542969 190.527344 127.898438 189.058594 " fill-opacity="1" fill-rule="nonzero"/><path fill="#ddb300" d="M 103.746094 202.078125 C 103.296875 200.957031 103.011719 199.785156 102.535156 198.675781 C 102.179688 197.851562 101.714844 197.097656 101.199219 196.375 L 101.136719 196.316406 C 101.152344 196.324219 101.160156 196.332031 101.175781 196.339844 C 101.167969 196.328125 101.160156 196.316406 101.148438 196.304688 L 101.210938 196.359375 C 101.976562 196.8125 102.769531 197.210938 103.621094 197.492188 C 104.769531 197.871094 105.964844 198.054688 107.121094 198.40625 C 108.566406 198.847656 109.648438 199.648438 110.695312 200.734375 C 112.734375 202.851562 113.292969 204.921875 113.605469 207.714844 L 113.621094 207.730469 C 113.617188 207.730469 113.613281 207.730469 113.609375 207.730469 C 113.609375 207.734375 113.609375 207.738281 113.609375 207.742188 L 113.59375 207.730469 C 110.777344 207.65625 108.664062 207.28125 106.375 205.429688 C 105.207031 204.488281 104.308594 203.476562 103.746094 202.078125 " fill-opacity="1" fill-rule="nonzero"/><path fill="#ddb300" d="M 124.308594 203.8125 C 124.941406 202.785156 125.417969 201.675781 126.074219 200.660156 C 126.5625 199.910156 127.144531 199.242188 127.777344 198.617188 L 127.847656 198.570312 C 127.832031 198.578125 127.820312 198.582031 127.808594 198.585938 C 127.816406 198.578125 127.828125 198.566406 127.835938 198.558594 L 127.769531 198.601562 C 126.9375 198.921875 126.085938 199.179688 125.203125 199.3125 C 124.003906 199.496094 122.796875 199.476562 121.597656 199.628906 C 120.097656 199.820312 118.894531 200.429688 117.683594 201.324219 C 115.316406 203.066406 114.417969 205.015625 113.636719 207.71875 L 113.621094 207.730469 C 113.625 207.730469 113.632812 207.730469 113.636719 207.730469 C 113.632812 207.738281 113.632812 207.742188 113.632812 207.746094 L 113.648438 207.734375 C 116.4375 208.132812 118.585938 208.117188 121.152344 206.679688 C 122.464844 205.941406 123.515625 205.097656 124.308594 203.8125 " fill-opacity="1" fill-rule="nonzero"/><path fill="#ddb300" d="M 97.308594 208.738281 C 97.230469 207.535156 97.320312 206.335938 97.210938 205.128906 C 97.128906 204.238281 96.921875 203.378906 96.652344 202.53125 L 96.613281 202.460938 C 96.621094 202.46875 96.632812 202.480469 96.640625 202.492188 C 96.636719 202.476562 96.632812 202.464844 96.628906 202.449219 L 96.667969 202.523438 C 97.253906 203.1875 97.886719 203.8125 98.609375 204.339844 C 99.585938 205.054688 100.664062 205.597656 101.65625 206.289062 C 102.894531 207.15625 103.675781 208.253906 104.332031 209.605469 C 105.621094 212.25 105.507812 214.390625 104.941406 217.144531 L 104.953125 217.164062 C 104.945312 217.160156 104.941406 217.160156 104.941406 217.160156 C 104.941406 217.164062 104.9375 217.167969 104.9375 217.171875 L 104.925781 217.152344 C 102.269531 216.214844 100.375 215.207031 98.773438 212.742188 C 97.953125 211.480469 97.410156 210.246094 97.308594 208.738281 " fill-opacity="1" fill-rule="nonzero"/><path fill="#ddb300" d="M 116.328125 216.730469 C 117.25 215.949219 118.042969 215.042969 118.984375 214.28125 C 119.679688 213.714844 120.441406 213.261719 121.234375 212.863281 L 121.316406 212.839844 C 121.304688 212.839844 121.289062 212.84375 121.273438 212.84375 C 121.285156 212.835938 121.296875 212.832031 121.3125 212.824219 L 121.230469 212.84375 C 120.34375 212.890625 119.453125 212.875 118.570312 212.730469 C 117.375 212.53125 116.234375 212.140625 115.046875 211.917969 C 113.558594 211.636719 112.226562 211.847656 110.796875 212.324219 C 108.003906 213.253906 106.550781 214.828125 104.972656 217.160156 L 104.953125 217.164062 C 104.957031 217.167969 104.960938 217.167969 104.964844 217.167969 C 104.960938 217.171875 104.960938 217.179688 104.957031 217.179688 L 104.976562 217.175781 C 107.503906 218.414062 109.550781 219.0625 112.4375 218.488281 C 113.914062 218.191406 115.175781 217.710938 116.328125 216.730469 " fill-opacity="1" fill-rule="nonzero"/><path fill="#ddb300" d="M 89.125 213.09375 C 89.421875 211.921875 89.878906 210.808594 90.148438 209.628906 C 90.347656 208.757812 90.417969 207.871094 90.421875 206.984375 L 90.40625 206.902344 C 90.410156 206.917969 90.417969 206.929688 90.425781 206.941406 C 90.421875 206.925781 90.425781 206.914062 90.425781 206.898438 L 90.441406 206.980469 C 90.792969 207.796875 91.203125 208.582031 91.722656 209.308594 C 92.433594 210.292969 93.289062 211.136719 94.019531 212.101562 C 94.925781 213.308594 95.332031 214.59375 95.539062 216.082031 C 95.941406 218.992188 95.175781 220.992188 93.78125 223.441406 L 93.785156 223.460938 C 93.78125 223.457031 93.777344 223.453125 93.777344 223.453125 C 93.773438 223.457031 93.773438 223.460938 93.769531 223.464844 L 93.765625 223.441406 C 91.527344 221.730469 90.039062 220.1875 89.277344 217.347656 C 88.886719 215.898438 88.757812 214.554688 89.125 213.09375 " fill-opacity="1" fill-rule="nonzero"/><path fill="#ddb300" d="M 104.738281 226.558594 C 105.855469 226.097656 106.894531 225.484375 108.023438 225.046875 C 108.859375 224.726562 109.726562 224.527344 110.605469 224.394531 L 110.6875 224.398438 C 110.675781 224.394531 110.660156 224.390625 110.648438 224.386719 C 110.660156 224.382812 110.675781 224.382812 110.6875 224.378906 L 110.605469 224.375 C 109.746094 224.144531 108.90625 223.855469 108.113281 223.445312 C 107.035156 222.886719 106.070312 222.164062 105.011719 221.585938 C 103.683594 220.859375 102.351562 220.648438 100.84375 220.660156 C 97.902344 220.683594 96.03125 221.730469 93.808594 223.460938 L 93.785156 223.460938 C 93.789062 223.464844 93.792969 223.46875 93.796875 223.46875 C 93.792969 223.472656 93.789062 223.476562 93.785156 223.476562 L 93.804688 223.480469 C 95.828125 225.441406 97.574219 226.6875 100.5 227.027344 C 101.992188 227.203125 103.339844 227.136719 104.738281 226.558594 " fill-opacity="1" fill-rule="nonzero"/><path fill="#ddb300" d="M 79.996094 214.707031 C 80.640625 213.683594 81.421875 212.765625 82.039062 211.726562 C 82.5 210.960938 82.839844 210.140625 83.121094 209.296875 L 83.128906 209.214844 C 83.128906 209.230469 83.132812 209.242188 83.132812 209.257812 C 83.136719 209.242188 83.144531 209.230469 83.148438 209.214844 L 83.136719 209.300781 C 83.21875 210.183594 83.367188 211.058594 83.636719 211.910156 C 84.007812 213.0625 84.558594 214.132812 84.953125 215.273438 C 85.445312 216.699219 85.433594 218.046875 85.167969 219.527344 C 84.652344 222.421875 83.300781 224.085938 81.21875 225.984375 L 81.21875 226.007812 C 81.214844 226 81.214844 225.996094 81.210938 225.996094 C 81.207031 225.996094 81.203125 226 81.199219 226.003906 L 81.203125 225.984375 C 79.605469 223.664062 78.667969 221.738281 78.820312 218.800781 C 78.902344 217.300781 79.191406 215.984375 79.996094 214.707031 " fill-opacity="1" fill-rule="nonzero"/><path fill="#ddb300" d="M 90.675781 232.332031 C 91.882812 232.238281 93.058594 231.972656 94.269531 231.90625 C 95.160156 231.859375 96.046875 231.9375 96.925781 232.078125 L 97.003906 232.109375 C 96.992188 232.101562 96.976562 232.09375 96.96875 232.085938 C 96.980469 232.089844 96.996094 232.09375 97.007812 232.09375 L 96.929688 232.0625 C 96.183594 231.582031 95.476562 231.042969 94.847656 230.410156 C 93.996094 229.546875 93.304688 228.5625 92.472656 227.683594 C 91.4375 226.585938 90.234375 225.972656 88.796875 225.519531 C 85.992188 224.632812 83.886719 225.054688 81.238281 226.011719 L 81.21875 226.007812 C 81.21875 226.007812 81.222656 226.011719 81.226562 226.015625 C 81.21875 226.019531 81.214844 226.019531 81.210938 226.023438 L 81.230469 226.03125 C 82.546875 228.515625 83.820312 230.242188 86.496094 231.46875 C 87.863281 232.09375 89.167969 232.449219 90.675781 232.332031 " fill-opacity="1" fill-rule="nonzero"/><path fill="#ddb300" d="M 83.777344 235.253906 C 83.523438 234.578125 80.742188 230.292969 77.261719 227.203125 C 75.492188 225.488281 73.503906 224.621094 71.914062 224.152344 C 71.59375 223.996094 71.261719 223.847656 70.90625 223.710938 C 68.480469 222.839844 65.6875 222.882812 62.929688 222.339844 C 60.789062 221.753906 58.027344 221.011719 55.460938 219.910156 C 52.910156 218.871094 50.558594 216.542969 47.847656 214.414062 C 42.429688 210.171875 37.699219 203.960938 34.957031 196.167969 C 33.582031 192.320312 32.675781 188.152344 32.574219 183.878906 C 32.59375 179.6875 33.605469 175.261719 35.007812 171.101562 C 37.597656 162.445312 44.386719 155.984375 50.960938 150.148438 C 44.105469 155.472656 36.78125 161.84375 33.828125 170.667969 C 32.242188 174.949219 31.09375 179.316406 30.964844 183.890625 C 30.976562 188.386719 31.859375 192.746094 33.242188 196.769531 C 35.925781 204.84375 41.042969 211.589844 46.578125 215.910156 C 49.308594 218.042969 51.660156 220.429688 54.660156 221.695312 C 57.578125 222.921875 60.074219 223.574219 62.519531 224.238281 C 65.648438 224.832031 68.253906 224.789062 70.269531 225.507812 C 72.222656 226.21875 73.730469 227.539062 74.84375 228.734375 C 74.945312 228.847656 75.042969 228.957031 75.140625 229.066406 C 77.308594 232.839844 78.40625 236.914062 78.625 237.460938 C 79.054688 238.570312 80.605469 239.078125 82.078125 238.601562 C 83.550781 238.121094 84.316406 236.621094 83.777344 235.253906 " fill-opacity="1" fill-rule="nonzero"/><path fill="#ddb300" d="M 118.09375 170.726562 C 115.144531 161.902344 107.863281 155.507812 101.03125 150.148438 C 107.574219 156.015625 114.324219 162.503906 116.910156 171.15625 C 118.3125 175.316406 119.3125 179.742188 119.367188 183.933594 C 119.3125 188.207031 118.417969 192.375 117.089844 196.242188 C 114.390625 204.03125 109.796875 210.359375 104.425781 214.636719 C 101.773438 216.78125 99.339844 219.125 96.882812 220.265625 C 94.351562 221.453125 91.632812 222.136719 89.441406 222.78125 C 86.734375 223.429688 83.953125 223.316406 81.523438 224.136719 C 81.09375 224.273438 80.695312 224.433594 80.316406 224.609375 C 78.722656 224.972656 76.328125 225.773438 74.289062 227.828125 C 71.054688 230.78125 68.484375 234.832031 68.25 235.46875 C 67.757812 236.753906 68.492188 238.160156 69.878906 238.601562 C 71.265625 239.042969 72.722656 238.550781 73.117188 237.496094 C 73.296875 237.046875 74.070312 234.078125 75.578125 230.964844 C 76.085938 230.328125 76.671875 229.660156 77.363281 228.972656 C 78.574219 227.902344 80.117188 226.535156 82.105469 225.957031 C 84.140625 225.265625 86.777344 225.390625 89.917969 224.671875 C 92.28125 223.972656 94.851562 223.355469 97.730469 222.035156 C 100.683594 220.613281 102.976562 218.320312 105.710938 216.125 C 111.222656 211.742188 116.171875 204.902344 118.816406 196.828125 C 120.152344 192.789062 121.015625 188.429688 120.980469 183.933594 C 120.816406 179.371094 119.675781 175.003906 118.09375 170.726562 " fill-opacity="1" fill-rule="nonzero"/><path fill="#ffefab" d="M 89.484375 195.636719 C 89.484375 197.34375 89.421875 199.117188 89.359375 200.703125 C 84.949219 200.703125 79.804688 200.703125 75.636719 200.703125 C 71.652344 200.703125 67.242188 200.765625 62.035156 200.765625 C 62.035156 199.117188 62.035156 197.34375 62.15625 195.636719 L 70.734375 195.453125 C 70.917969 195.453125 71.042969 195.269531 71.042969 195.085938 C 71.042969 187.332031 71.042969 177.441406 71.042969 171.03125 C 68.101562 171.398438 65.28125 171.765625 61.605469 172.253906 C 61.300781 170.605469 60.992188 168.832031 60.808594 167.1875 C 67.179688 165.414062 80.414062 160.46875 81.027344 160.46875 C 81.152344 160.46875 81.273438 160.53125 81.273438 160.773438 C 81.273438 170.421875 81.089844 184.648438 81.027344 195.453125 L 89.484375 195.636719 " fill-opacity="1" fill-rule="nonzero"/><path fill="#ffefab" d="M 54.753906 159.984375 C 55.878906 160.433594 57.050781 160.71875 58.164062 161.195312 C 58.988281 161.546875 59.746094 162.011719 60.46875 162.527344 L 60.523438 162.585938 C 60.515625 162.574219 60.511719 162.5625 60.503906 162.550781 C 60.515625 162.558594 60.527344 162.566406 60.539062 162.574219 L 60.480469 162.511719 C 60.027344 161.75 59.628906 160.957031 59.351562 160.109375 C 58.96875 158.957031 58.785156 157.769531 58.433594 156.613281 C 57.992188 155.171875 57.1875 154.089844 56.101562 153.046875 C 53.980469 151.007812 51.90625 150.453125 49.105469 150.140625 L 49.09375 150.125 C 49.09375 150.128906 49.09375 150.132812 49.09375 150.136719 C 49.089844 150.136719 49.085938 150.136719 49.078125 150.136719 L 49.09375 150.152344 C 49.167969 152.964844 49.542969 155.074219 51.394531 157.359375 C 52.34375 158.527344 53.351562 159.421875 54.753906 159.984375 " fill-opacity="1" fill-rule="nonzero"/><path fill="#ffefab" d="M 53.019531 139.457031 C 54.050781 138.824219 55.160156 138.351562 56.175781 137.691406 C 56.925781 137.207031 57.597656 136.625 58.222656 135.996094 L 58.265625 135.925781 C 58.261719 135.9375 58.257812 135.949219 58.253906 135.964844 C 58.261719 135.953125 58.273438 135.945312 58.285156 135.933594 L 58.238281 136.003906 C 57.917969 136.832031 57.660156 137.679688 57.527344 138.566406 C 57.34375 139.761719 57.363281 140.964844 57.210938 142.164062 C 57.019531 143.660156 56.40625 144.859375 55.511719 146.070312 C 53.761719 148.433594 51.8125 149.328125 49.105469 150.109375 L 49.09375 150.125 C 49.09375 150.121094 49.089844 150.117188 49.089844 150.109375 C 49.085938 150.113281 49.082031 150.113281 49.078125 150.117188 L 49.089844 150.097656 C 48.6875 147.3125 48.703125 145.167969 50.148438 142.609375 C 50.882812 141.296875 51.730469 140.246094 53.019531 139.457031 " fill-opacity="1" fill-rule="nonzero"/><path fill="#ffefab" d="M 48.082031 166.410156 C 49.289062 166.488281 50.488281 166.398438 51.699219 166.507812 C 52.589844 166.589844 53.453125 166.796875 54.300781 167.0625 L 54.375 167.105469 C 54.363281 167.09375 54.351562 167.085938 54.34375 167.078125 C 54.355469 167.082031 54.371094 167.085938 54.382812 167.089844 L 54.308594 167.046875 C 53.640625 166.460938 53.019531 165.832031 52.488281 165.109375 C 51.769531 164.136719 51.226562 163.058594 50.535156 162.070312 C 49.667969 160.832031 48.566406 160.054688 47.214844 159.398438 C 44.566406 158.113281 42.421875 158.226562 39.660156 158.789062 L 39.644531 158.777344 C 39.644531 158.785156 39.644531 158.789062 39.648438 158.792969 C 39.644531 158.792969 39.640625 158.792969 39.632812 158.792969 L 39.652344 158.804688 C 40.59375 161.457031 41.601562 163.347656 44.074219 164.949219 C 45.335938 165.769531 46.574219 166.304688 48.082031 166.410156 " fill-opacity="1" fill-rule="nonzero"/><path fill="#ffefab" d="M 40.074219 147.425781 C 40.859375 146.503906 41.765625 145.710938 42.53125 144.773438 C 43.097656 144.078125 43.550781 143.316406 43.953125 142.523438 L 43.972656 142.441406 C 43.972656 142.457031 43.972656 142.472656 43.972656 142.488281 C 43.976562 142.472656 43.984375 142.460938 43.992188 142.449219 L 43.96875 142.527344 C 43.921875 143.414062 43.9375 144.300781 44.085938 145.183594 C 44.28125 146.378906 44.671875 147.515625 44.898438 148.703125 C 45.179688 150.1875 44.96875 151.515625 44.492188 152.941406 C 43.5625 155.730469 41.984375 157.183594 39.648438 158.757812 L 39.644531 158.777344 C 39.640625 158.773438 39.640625 158.773438 39.636719 158.765625 C 39.632812 158.769531 39.628906 158.773438 39.625 158.773438 L 39.632812 158.753906 C 38.390625 156.230469 37.742188 154.1875 38.320312 151.304688 C 38.613281 149.832031 39.09375 148.570312 40.074219 147.425781 " fill-opacity="1" fill-rule="nonzero"/><path fill="#ffefab" d="M 43.722656 174.578125 C 44.894531 174.28125 46.011719 173.824219 47.191406 173.554688 C 48.066406 173.359375 48.949219 173.289062 49.839844 173.285156 L 49.921875 173.300781 C 49.910156 173.292969 49.894531 173.289062 49.882812 173.28125 C 49.898438 173.28125 49.910156 173.28125 49.925781 173.28125 L 49.84375 173.265625 C 49.027344 172.914062 48.238281 172.507812 47.511719 171.984375 C 46.527344 171.277344 45.679688 170.421875 44.714844 169.695312 C 43.503906 168.785156 42.21875 168.382812 40.726562 168.175781 C 37.808594 167.773438 35.804688 168.542969 33.355469 169.929688 L 33.335938 169.925781 C 33.339844 169.929688 33.339844 169.933594 33.34375 169.933594 C 33.339844 169.9375 33.335938 169.941406 33.332031 169.941406 L 33.351562 169.949219 C 35.070312 172.179688 36.613281 173.664062 39.457031 174.425781 C 40.914062 174.816406 42.257812 174.945312 43.722656 174.578125 " fill-opacity="1" fill-rule="nonzero"/><path fill="#ffefab" d="M 30.230469 158.992188 C 30.691406 157.875 31.308594 156.839844 31.746094 155.710938 C 32.066406 154.878906 32.265625 154.015625 32.402344 153.136719 L 32.398438 153.054688 C 32.398438 153.066406 32.40625 153.082031 32.40625 153.09375 C 32.410156 153.082031 32.410156 153.066406 32.414062 153.050781 L 32.417969 153.132812 C 32.648438 153.992188 32.941406 154.832031 33.351562 155.625 C 33.910156 156.699219 34.632812 157.660156 35.214844 158.722656 C 35.941406 160.042969 36.152344 161.375 36.140625 162.878906 C 36.117188 165.820312 35.066406 167.6875 33.335938 169.90625 L 33.335938 169.925781 C 33.332031 169.921875 33.328125 169.917969 33.324219 169.914062 C 33.324219 169.917969 33.320312 169.921875 33.316406 169.925781 L 33.316406 169.90625 C 31.351562 167.886719 30.105469 166.144531 29.761719 163.226562 C 29.585938 161.734375 29.652344 160.386719 30.230469 158.992188 " fill-opacity="1" fill-rule="nonzero"/><path fill="#ffefab" d="M 42.105469 183.691406 C 43.128906 183.050781 44.046875 182.269531 45.089844 181.648438 C 45.859375 181.195312 46.679688 180.855469 47.523438 180.574219 L 47.605469 180.566406 C 47.589844 180.5625 47.578125 180.5625 47.5625 180.5625 C 47.578125 180.554688 47.589844 180.550781 47.605469 180.546875 L 47.519531 180.554688 C 46.636719 180.472656 45.757812 180.328125 44.90625 180.058594 C 43.75 179.6875 42.679688 179.136719 41.535156 178.742188 C 40.105469 178.25 38.757812 178.265625 37.273438 178.53125 C 34.375 179.042969 32.707031 180.394531 30.808594 182.46875 L 30.785156 182.472656 C 30.789062 182.476562 30.792969 182.476562 30.796875 182.480469 C 30.792969 182.484375 30.792969 182.484375 30.789062 182.488281 L 30.808594 182.488281 C 33.132812 184.082031 35.0625 185.019531 38.003906 184.863281 C 39.503906 184.785156 40.824219 184.496094 42.105469 183.691406 " fill-opacity="1" fill-rule="nonzero"/><path fill="#ffefab" d="M 24.449219 173.03125 C 24.542969 171.828125 24.808594 170.652344 24.875 169.445312 C 24.921875 168.550781 24.84375 167.667969 24.699219 166.792969 L 24.671875 166.714844 C 24.679688 166.726562 24.6875 166.738281 24.695312 166.75 C 24.691406 166.738281 24.691406 166.722656 24.6875 166.707031 L 24.71875 166.785156 C 25.203125 167.53125 25.738281 168.238281 26.375 168.867188 C 27.234375 169.714844 28.226562 170.410156 29.105469 171.238281 C 30.203125 172.269531 30.820312 173.472656 31.273438 174.90625 C 32.160156 177.707031 31.738281 179.808594 30.777344 182.453125 L 30.785156 182.472656 C 30.78125 182.46875 30.777344 182.46875 30.773438 182.464844 C 30.773438 182.46875 30.773438 182.472656 30.769531 182.476562 L 30.761719 182.457031 C 28.269531 181.144531 26.542969 179.875 25.316406 177.203125 C 24.683594 175.835938 24.332031 174.535156 24.449219 173.03125 " fill-opacity="1" fill-rule="nonzero"/><path fill="#ffefab" d="M 43.390625 192.859375 C 44.164062 191.933594 44.796875 190.90625 45.59375 189.996094 C 46.183594 189.324219 46.859375 188.75 47.574219 188.222656 L 47.652344 188.1875 C 47.636719 188.191406 47.625 188.195312 47.609375 188.195312 C 47.621094 188.1875 47.632812 188.179688 47.644531 188.171875 L 47.570312 188.207031 C 46.703125 188.398438 45.824219 188.53125 44.925781 188.539062 C 43.714844 188.542969 42.523438 188.351562 41.316406 188.328125 C 39.804688 188.300781 38.527344 188.730469 37.195312 189.441406 C 34.597656 190.824219 33.429688 192.621094 32.265625 195.183594 L 32.246094 195.191406 C 32.25 195.191406 32.253906 195.191406 32.257812 195.195312 C 32.257812 195.199219 32.257812 195.203125 32.253906 195.207031 L 32.273438 195.199219 C 34.976562 195.996094 37.101562 196.292969 39.847656 195.238281 C 41.253906 194.699219 42.417969 194.019531 43.390625 192.859375 " fill-opacity="1" fill-rule="nonzero"/><path fill="#ffefab" d="M 23.296875 188.167969 C 23.011719 186.992188 22.902344 185.792969 22.589844 184.625 C 22.359375 183.761719 22.011719 182.945312 21.605469 182.15625 L 21.550781 182.09375 C 21.5625 182.097656 21.574219 182.109375 21.585938 182.117188 C 21.578125 182.105469 21.574219 182.09375 21.566406 182.078125 L 21.617188 182.144531 C 22.308594 182.703125 23.039062 183.210938 23.839844 183.613281 C 24.921875 184.152344 26.074219 184.507812 27.167969 185.023438 C 28.535156 185.667969 29.488281 186.621094 30.367188 187.84375 C 32.078125 190.234375 32.328125 192.363281 32.234375 195.175781 L 32.246094 195.191406 C 32.242188 195.1875 32.238281 195.1875 32.234375 195.1875 C 32.230469 195.191406 32.230469 195.195312 32.230469 195.203125 L 32.21875 195.183594 C 29.441406 194.707031 27.40625 194.027344 25.410156 191.867188 C 24.390625 190.761719 23.652344 189.632812 23.296875 188.167969 " fill-opacity="1" fill-rule="nonzero"/><path fill="#ffefab" d="M 47.445312 201.183594 C 47.898438 200.0625 48.183594 198.890625 48.660156 197.78125 C 49.011719 196.957031 49.476562 196.203125 49.996094 195.480469 L 50.054688 195.425781 C 50.042969 195.433594 50.03125 195.4375 50.019531 195.445312 C 50.027344 195.433594 50.035156 195.421875 50.042969 195.410156 L 49.984375 195.464844 C 49.21875 195.917969 48.421875 196.316406 47.574219 196.597656 C 46.421875 196.976562 45.230469 197.160156 44.074219 197.511719 C 42.625 197.953125 41.542969 198.757812 40.5 199.839844 C 38.457031 201.957031 37.902344 204.027344 37.585938 206.820312 L 37.570312 206.835938 C 37.574219 206.835938 37.582031 206.835938 37.585938 206.835938 C 37.585938 206.839844 37.585938 206.84375 37.582031 206.847656 L 37.597656 206.835938 C 40.414062 206.761719 42.53125 206.386719 44.816406 204.539062 C 45.988281 203.59375 46.882812 202.582031 47.445312 201.183594 " fill-opacity="1" fill-rule="nonzero"/><path fill="#ffefab" d="M 26.886719 202.914062 C 26.253906 201.886719 25.777344 200.78125 25.117188 199.765625 C 24.632812 199.015625 24.046875 198.347656 23.417969 197.722656 L 23.347656 197.679688 C 23.359375 197.683594 23.371094 197.6875 23.386719 197.691406 C 23.375 197.683594 23.367188 197.671875 23.355469 197.664062 L 23.425781 197.707031 C 24.257812 198.027344 25.105469 198.285156 25.992188 198.417969 C 27.1875 198.601562 28.398438 198.578125 29.597656 198.734375 C 31.09375 198.925781 32.296875 199.535156 33.511719 200.429688 C 35.878906 202.175781 36.773438 204.121094 37.554688 206.824219 L 37.570312 206.835938 C 37.566406 206.839844 37.5625 206.839844 37.558594 206.839844 C 37.558594 206.84375 37.558594 206.847656 37.5625 206.851562 L 37.542969 206.839844 C 34.753906 207.238281 32.609375 207.222656 30.042969 205.785156 C 28.730469 205.046875 27.675781 204.203125 26.886719 202.914062 " fill-opacity="1" fill-rule="nonzero"/><path fill="#ffefab" d="M 53.882812 207.847656 C 53.964844 206.640625 53.875 205.4375 53.984375 204.234375 C 54.066406 203.34375 54.273438 202.484375 54.539062 201.636719 L 54.582031 201.5625 C 54.574219 201.574219 54.5625 201.585938 54.554688 201.597656 C 54.558594 201.582031 54.5625 201.570312 54.566406 201.554688 L 54.523438 201.628906 C 53.9375 202.292969 53.304688 202.917969 52.582031 203.445312 C 51.605469 204.164062 50.53125 204.703125 49.539062 205.394531 C 48.296875 206.261719 47.519531 207.359375 46.859375 208.714844 C 45.574219 211.355469 45.683594 213.496094 46.25 216.25 L 46.242188 216.269531 C 46.246094 216.269531 46.25 216.265625 46.253906 216.265625 C 46.253906 216.269531 46.257812 216.273438 46.257812 216.277344 L 46.265625 216.261719 C 48.925781 215.320312 50.816406 214.3125 52.421875 211.847656 C 53.242188 210.585938 53.78125 209.351562 53.882812 207.847656 " fill-opacity="1" fill-rule="nonzero"/><path fill="#ffefab" d="M 34.867188 215.839844 C 33.945312 215.054688 33.148438 214.148438 32.210938 213.386719 C 31.515625 212.824219 30.75 212.367188 29.957031 211.96875 L 29.875 211.945312 C 29.890625 211.945312 29.90625 211.949219 29.917969 211.949219 C 29.90625 211.941406 29.894531 211.9375 29.882812 211.929688 L 29.960938 211.949219 C 30.851562 211.996094 31.738281 211.980469 32.621094 211.835938 C 33.816406 211.636719 34.960938 211.246094 36.148438 211.023438 C 37.632812 210.742188 38.964844 210.953125 40.394531 211.429688 C 43.1875 212.359375 44.644531 213.933594 46.222656 216.261719 L 46.242188 216.269531 C 46.238281 216.269531 46.234375 216.273438 46.230469 216.273438 C 46.230469 216.28125 46.234375 216.28125 46.238281 216.285156 L 46.21875 216.28125 C 43.6875 217.523438 41.640625 218.167969 38.753906 217.589844 C 37.277344 217.296875 36.015625 216.816406 34.867188 215.839844 " fill-opacity="1" fill-rule="nonzero"/><path fill="#ffefab" d="M 62.066406 212.199219 C 61.773438 211.027344 61.3125 209.914062 61.042969 208.734375 C 60.847656 207.863281 60.777344 206.976562 60.769531 206.089844 L 60.789062 206.007812 C 60.78125 206.019531 60.777344 206.035156 60.769531 206.046875 C 60.769531 206.03125 60.769531 206.019531 60.769531 206.003906 L 60.753906 206.085938 C 60.402344 206.902344 59.992188 207.6875 59.46875 208.414062 C 58.761719 209.398438 57.90625 210.246094 57.175781 211.207031 C 56.265625 212.414062 55.863281 213.699219 55.65625 215.1875 C 55.25 218.097656 56.019531 220.097656 57.410156 222.546875 L 57.40625 222.566406 C 57.410156 222.5625 57.414062 222.5625 57.417969 222.558594 C 57.421875 222.5625 57.421875 222.566406 57.425781 222.570312 L 57.429688 222.550781 C 59.664062 220.835938 61.152344 219.292969 61.914062 216.453125 C 62.304688 215.003906 62.4375 213.660156 62.066406 212.199219 " fill-opacity="1" fill-rule="nonzero"/><path fill="#ffefab" d="M 46.453125 225.664062 C 45.335938 225.203125 44.300781 224.589844 43.167969 224.152344 C 42.332031 223.832031 41.46875 223.632812 40.589844 223.5 L 40.503906 223.503906 C 40.519531 223.5 40.53125 223.496094 40.546875 223.492188 C 40.53125 223.488281 40.519531 223.488281 40.503906 223.484375 L 40.585938 223.480469 C 41.445312 223.25 42.285156 222.960938 43.082031 222.550781 C 44.15625 221.996094 45.121094 221.269531 46.183594 220.691406 C 47.507812 219.964844 48.84375 219.753906 50.347656 219.765625 C 53.292969 219.789062 55.164062 220.839844 57.386719 222.566406 L 57.40625 222.566406 C 57.402344 222.570312 57.398438 222.574219 57.398438 222.574219 C 57.398438 222.578125 57.40625 222.582031 57.40625 222.582031 L 57.386719 222.585938 C 55.367188 224.542969 53.621094 225.792969 50.695312 226.132812 C 49.199219 226.308594 47.851562 226.242188 46.453125 225.664062 " fill-opacity="1" fill-rule="nonzero"/><path fill="#ffefab" d="M 71.199219 213.8125 C 70.554688 212.789062 69.773438 211.871094 69.152344 210.832031 C 68.695312 210.066406 68.355469 209.246094 68.074219 208.402344 L 68.0625 208.320312 C 68.0625 208.335938 68.0625 208.347656 68.058594 208.363281 C 68.054688 208.351562 68.050781 208.335938 68.046875 208.324219 L 68.054688 208.40625 C 67.972656 209.289062 67.828125 210.164062 67.554688 211.015625 C 67.1875 212.167969 66.632812 213.238281 66.238281 214.378906 C 65.746094 215.804688 65.761719 217.152344 66.023438 218.632812 C 66.542969 221.527344 67.894531 223.191406 69.972656 225.089844 L 69.972656 225.113281 C 69.976562 225.105469 69.980469 225.101562 69.984375 225.097656 C 69.984375 225.101562 69.988281 225.105469 69.992188 225.109375 L 69.992188 225.089844 C 71.585938 222.769531 72.523438 220.84375 72.371094 217.90625 C 72.292969 216.40625 72.003906 215.089844 71.199219 213.8125 " fill-opacity="1" fill-rule="nonzero"/><path fill="#ffefab" d="M 60.515625 231.4375 C 59.3125 231.34375 58.136719 231.078125 56.925781 231.011719 C 56.03125 230.964844 55.144531 231.042969 54.269531 231.1875 L 54.191406 231.214844 C 54.203125 231.207031 54.214844 231.199219 54.226562 231.191406 C 54.210938 231.195312 54.199219 231.199219 54.183594 231.199219 L 54.261719 231.167969 C 55.007812 230.6875 55.71875 230.152344 56.347656 229.515625 C 57.199219 228.652344 57.890625 227.667969 58.71875 226.789062 C 59.757812 225.691406 60.957031 225.078125 62.394531 224.625 C 65.199219 223.738281 67.304688 224.160156 69.957031 225.117188 L 69.972656 225.113281 C 69.972656 225.113281 69.972656 225.117188 69.96875 225.121094 C 69.972656 225.125 69.976562 225.125 69.980469 225.125 L 69.960938 225.136719 C 68.644531 227.621094 67.371094 229.34375 64.695312 230.574219 C 63.328125 231.199219 62.027344 231.554688 60.515625 231.4375 " fill-opacity="1" fill-rule="nonzero"/><path fill="#ffefab" d="M 95.535156 160.488281 C 94.414062 160.9375 93.242188 161.222656 92.128906 161.699219 C 91.304688 162.050781 90.546875 162.515625 89.824219 163.03125 L 89.769531 163.09375 C 89.773438 163.082031 89.78125 163.070312 89.789062 163.054688 C 89.777344 163.0625 89.765625 163.074219 89.753906 163.082031 L 89.8125 163.019531 C 90.265625 162.253906 90.660156 161.460938 90.945312 160.613281 C 91.324219 159.464844 91.507812 158.273438 91.859375 157.121094 C 92.300781 155.675781 93.105469 154.59375 94.191406 153.554688 C 96.3125 151.515625 98.386719 150.960938 101.1875 150.644531 L 101.199219 150.628906 C 101.199219 150.636719 101.199219 150.640625 101.199219 150.644531 C 101.203125 150.644531 101.207031 150.644531 101.210938 150.644531 L 101.199219 150.65625 C 101.125 153.472656 100.75 155.578125 98.898438 157.863281 C 97.949219 159.03125 96.9375 159.925781 95.535156 160.488281 " fill-opacity="1" fill-rule="nonzero"/><path fill="#ffefab" d="M 97.273438 139.964844 C 96.242188 139.332031 95.136719 138.855469 94.117188 138.199219 C 93.367188 137.714844 92.695312 137.128906 92.070312 136.5 L 92.023438 136.429688 C 92.03125 136.441406 92.035156 136.457031 92.039062 136.46875 C 92.03125 136.457031 92.019531 136.449219 92.011719 136.4375 L 92.054688 136.507812 C 92.375 137.335938 92.632812 138.1875 92.765625 139.070312 C 92.949219 140.265625 92.929688 141.46875 93.082031 142.667969 C 93.273438 144.164062 93.886719 145.367188 94.78125 146.574219 C 96.53125 148.941406 98.480469 149.832031 101.1875 150.613281 L 101.199219 150.628906 C 101.203125 150.625 101.203125 150.621094 101.203125 150.617188 C 101.207031 150.617188 101.210938 150.621094 101.214844 150.621094 L 101.203125 150.605469 C 101.605469 147.820312 101.585938 145.675781 100.144531 143.113281 C 99.410156 141.804688 98.5625 140.753906 97.273438 139.964844 " fill-opacity="1" fill-rule="nonzero"/><path fill="#ffefab" d="M 102.210938 166.914062 C 101.003906 166.996094 99.800781 166.902344 98.59375 167.011719 C 97.703125 167.09375 96.839844 167.300781 95.992188 167.570312 L 95.917969 167.609375 C 95.929688 167.601562 95.941406 167.59375 95.949219 167.582031 C 95.9375 167.585938 95.925781 167.589844 95.910156 167.59375 L 95.984375 167.554688 C 96.648438 166.96875 97.273438 166.335938 97.804688 165.617188 C 98.523438 164.640625 99.0625 163.566406 99.757812 162.574219 C 100.621094 161.339844 101.722656 160.558594 103.078125 159.902344 C 105.726562 158.617188 107.871094 158.730469 110.628906 159.296875 L 110.648438 159.285156 C 110.648438 159.289062 110.644531 159.292969 110.644531 159.296875 C 110.648438 159.300781 110.652344 159.300781 110.65625 159.300781 L 110.640625 159.308594 C 109.699219 161.964844 108.6875 163.851562 106.21875 165.453125 C 104.957031 166.273438 103.71875 166.8125 102.210938 166.914062 " fill-opacity="1" fill-rule="nonzero"/><path fill="#ffefab" d="M 110.21875 147.929688 C 109.433594 147.011719 108.527344 146.214844 107.761719 145.277344 C 107.195312 144.582031 106.742188 143.824219 106.339844 143.03125 L 106.320312 142.949219 C 106.320312 142.964844 106.320312 142.976562 106.320312 142.992188 C 106.316406 142.980469 106.308594 142.964844 106.300781 142.953125 L 106.324219 143.035156 C 106.371094 143.921875 106.351562 144.804688 106.207031 145.6875 C 106.011719 146.882812 105.617188 148.023438 105.394531 149.207031 C 105.113281 150.691406 105.324219 152.019531 105.800781 153.449219 C 106.730469 156.238281 108.308594 157.6875 110.644531 159.265625 L 110.648438 159.285156 C 110.652344 159.28125 110.652344 159.277344 110.65625 159.273438 C 110.660156 159.277344 110.664062 159.277344 110.667969 159.28125 L 110.660156 159.261719 C 111.902344 156.734375 112.550781 154.691406 111.972656 151.8125 C 111.675781 150.335938 111.199219 149.078125 110.21875 147.929688 " fill-opacity="1" fill-rule="nonzero"/><path fill="#ffefab" d="M 106.570312 175.082031 C 105.398438 174.789062 104.28125 174.332031 103.101562 174.0625 C 102.226562 173.863281 101.339844 173.796875 100.453125 173.789062 L 100.371094 173.804688 C 100.382812 173.800781 100.398438 173.792969 100.410156 173.789062 C 100.394531 173.789062 100.382812 173.789062 100.367188 173.789062 L 100.449219 173.773438 C 101.265625 173.417969 102.054688 173.011719 102.78125 172.488281 C 103.765625 171.785156 104.613281 170.925781 105.578125 170.199219 C 106.785156 169.292969 108.074219 168.890625 109.566406 168.683594 C 112.480469 168.277344 114.488281 169.046875 116.9375 170.4375 L 116.957031 170.429688 C 116.953125 170.4375 116.953125 170.4375 116.949219 170.441406 C 116.953125 170.445312 116.957031 170.445312 116.960938 170.449219 L 116.941406 170.453125 C 115.222656 172.683594 113.679688 174.171875 110.835938 174.933594 C 109.378906 175.320312 108.039062 175.453125 106.570312 175.082031 " fill-opacity="1" fill-rule="nonzero"/><path fill="#ffefab" d="M 120.0625 159.496094 C 119.601562 158.382812 118.984375 157.347656 118.546875 156.21875 C 118.226562 155.382812 118.027344 154.519531 117.890625 153.640625 L 117.894531 153.558594 C 117.890625 153.574219 117.886719 153.585938 117.882812 153.601562 C 117.882812 153.585938 117.882812 153.570312 117.878906 153.558594 L 117.875 153.640625 C 117.644531 154.5 117.351562 155.335938 116.941406 156.128906 C 116.382812 157.207031 115.660156 158.167969 115.078125 159.226562 C 114.351562 160.550781 114.140625 161.878906 114.152344 163.382812 C 114.175781 166.324219 115.226562 168.191406 116.957031 170.410156 L 116.957031 170.429688 C 116.960938 170.425781 116.964844 170.425781 116.964844 170.421875 C 116.96875 170.425781 116.972656 170.429688 116.972656 170.429688 L 116.976562 170.410156 C 118.941406 168.394531 120.1875 166.652344 120.53125 163.730469 C 120.707031 162.238281 120.640625 160.894531 120.0625 159.496094 " fill-opacity="1" fill-rule="nonzero"/><path fill="#ffefab" d="M 108.1875 184.199219 C 107.164062 183.558594 106.242188 182.777344 105.203125 182.15625 C 104.433594 181.699219 103.613281 181.359375 102.769531 181.078125 L 102.6875 181.070312 C 102.699219 181.070312 102.714844 181.066406 102.726562 181.066406 C 102.714844 181.0625 102.703125 181.054688 102.6875 181.050781 L 102.773438 181.0625 C 103.65625 180.980469 104.535156 180.832031 105.386719 180.5625 C 106.539062 180.195312 107.613281 179.644531 108.757812 179.25 C 110.183594 178.757812 111.535156 178.769531 113.015625 179.035156 C 115.917969 179.550781 117.585938 180.898438 119.484375 182.976562 L 119.507812 182.976562 C 119.503906 182.980469 119.5 182.984375 119.496094 182.984375 C 119.5 182.988281 119.5 182.992188 119.503906 182.996094 L 119.484375 182.992188 C 117.160156 184.585938 115.230469 185.523438 112.289062 185.367188 C 110.785156 185.289062 109.46875 185 108.1875 184.199219 " fill-opacity="1" fill-rule="nonzero"/><path fill="#ffefab" d="M 125.84375 173.535156 C 125.75 172.332031 125.484375 171.15625 125.417969 169.949219 C 125.367188 169.058594 125.449219 168.175781 125.589844 167.296875 L 125.621094 167.222656 C 125.613281 167.234375 125.605469 167.246094 125.597656 167.253906 C 125.601562 167.242188 125.601562 167.226562 125.605469 167.214844 L 125.574219 167.292969 C 125.089844 168.039062 124.554688 168.746094 123.917969 169.371094 C 123.054688 170.222656 122.066406 170.914062 121.1875 171.742188 C 120.085938 172.777344 119.476562 173.976562 119.019531 175.410156 C 118.132812 178.210938 118.554688 180.3125 119.511719 182.957031 L 119.507812 182.976562 C 119.511719 182.976562 119.515625 182.972656 119.519531 182.972656 C 119.519531 182.976562 119.523438 182.980469 119.523438 182.984375 L 119.53125 182.964844 C 122.023438 181.648438 123.75 180.378906 124.976562 177.707031 C 125.605469 176.339844 125.960938 175.039062 125.84375 173.535156 " fill-opacity="1" fill-rule="nonzero"/><path fill="#ffefab" d="M 106.902344 193.367188 C 106.128906 192.441406 105.496094 191.414062 104.695312 190.503906 C 104.109375 189.832031 103.433594 189.253906 102.714844 188.726562 L 102.640625 188.691406 C 102.65625 188.695312 102.667969 188.699219 102.679688 188.703125 C 102.671875 188.695312 102.660156 188.683594 102.648438 188.675781 L 102.722656 188.710938 C 103.589844 188.90625 104.46875 189.039062 105.363281 189.042969 C 106.578125 189.050781 107.769531 188.855469 108.976562 188.835938 C 110.488281 188.804688 111.769531 189.238281 113.097656 189.945312 C 115.695312 191.328125 116.863281 193.125 118.027344 195.6875 L 118.046875 195.695312 C 118.042969 195.695312 118.039062 195.699219 118.03125 195.699219 C 118.035156 195.703125 118.039062 195.707031 118.039062 195.710938 L 118.019531 195.703125 C 115.316406 196.503906 113.191406 196.796875 110.445312 195.746094 C 109.035156 195.207031 107.875 194.523438 106.902344 193.367188 " fill-opacity="1" fill-rule="nonzero"/><path fill="#ffefab" d="M 126.996094 188.671875 C 127.277344 187.5 127.390625 186.300781 127.699219 185.128906 C 127.929688 184.265625 128.28125 183.449219 128.6875 182.660156 L 128.738281 182.597656 C 128.726562 182.605469 128.71875 182.613281 128.707031 182.625 C 128.714844 182.609375 128.71875 182.597656 128.726562 182.585938 L 128.675781 182.648438 C 127.984375 183.207031 127.253906 183.71875 126.453125 184.117188 C 125.371094 184.660156 124.21875 185.011719 123.125 185.527344 C 121.757812 186.175781 120.804688 187.125 119.925781 188.347656 C 118.214844 190.738281 117.964844 192.867188 118.058594 195.679688 L 118.046875 195.695312 C 118.050781 195.695312 118.054688 195.695312 118.058594 195.691406 C 118.058594 195.699219 118.058594 195.703125 118.058594 195.707031 L 118.074219 195.691406 C 120.851562 195.210938 122.886719 194.535156 124.878906 192.371094 C 125.902344 191.265625 126.640625 190.140625 126.996094 188.671875 " fill-opacity="1" fill-rule="nonzero"/><path fill="#ffefab" d="M 102.847656 201.6875 C 102.394531 200.566406 102.109375 199.398438 101.632812 198.285156 C 101.28125 197.464844 100.816406 196.707031 100.296875 195.984375 L 100.238281 195.929688 C 100.25 195.9375 100.261719 195.945312 100.273438 195.949219 C 100.265625 195.941406 100.257812 195.929688 100.25 195.917969 L 100.3125 195.972656 C 101.074219 196.425781 101.871094 196.824219 102.71875 197.101562 C 103.871094 197.484375 105.0625 197.664062 106.21875 198.019531 C 107.664062 198.457031 108.75 199.261719 109.792969 200.347656 C 111.835938 202.460938 112.390625 204.53125 112.707031 207.328125 L 112.71875 207.339844 C 112.714844 207.339844 112.710938 207.339844 112.707031 207.339844 C 112.707031 207.347656 112.707031 207.347656 112.707031 207.351562 L 112.691406 207.339844 C 109.875 207.265625 107.761719 206.890625 105.476562 205.042969 C 104.304688 204.097656 103.40625 203.089844 102.847656 201.6875 " fill-opacity="1" fill-rule="nonzero"/><path fill="#ffefab" d="M 123.40625 203.421875 C 124.039062 202.394531 124.515625 201.285156 125.175781 200.269531 C 125.660156 199.519531 126.246094 198.855469 126.878906 198.226562 L 126.945312 198.183594 C 126.933594 198.1875 126.917969 198.191406 126.90625 198.199219 C 126.917969 198.1875 126.925781 198.179688 126.9375 198.167969 L 126.867188 198.210938 C 126.035156 198.53125 125.1875 198.789062 124.300781 198.921875 C 123.105469 199.105469 121.894531 199.085938 120.695312 199.238281 C 119.199219 199.429688 117.996094 200.042969 116.78125 200.933594 C 114.414062 202.679688 113.519531 204.625 112.738281 207.332031 L 112.71875 207.339844 C 112.726562 207.34375 112.730469 207.34375 112.734375 207.34375 C 112.734375 207.347656 112.730469 207.351562 112.730469 207.355469 L 112.746094 207.347656 C 115.539062 207.746094 117.683594 207.730469 120.25 206.289062 C 121.5625 205.554688 122.617188 204.710938 123.40625 203.421875 " fill-opacity="1" fill-rule="nonzero"/><path fill="#ffefab" d="M 96.410156 208.351562 C 96.328125 207.148438 96.417969 205.945312 96.308594 204.742188 C 96.226562 203.851562 96.019531 202.988281 95.75 202.140625 L 95.710938 202.070312 C 95.71875 202.082031 95.730469 202.089844 95.738281 202.101562 C 95.734375 202.089844 95.730469 202.074219 95.726562 202.0625 L 95.765625 202.132812 C 96.355469 202.800781 96.988281 203.421875 97.707031 203.953125 C 98.6875 204.667969 99.765625 205.210938 100.753906 205.902344 C 101.992188 206.765625 102.773438 207.867188 103.433594 209.21875 C 104.71875 211.863281 104.605469 214 104.042969 216.757812 L 104.050781 216.777344 C 104.046875 216.773438 104.042969 216.769531 104.039062 216.769531 C 104.039062 216.773438 104.035156 216.777344 104.035156 216.785156 L 104.023438 216.765625 C 101.371094 215.828125 99.476562 214.816406 97.871094 212.351562 C 97.050781 211.09375 96.511719 209.855469 96.410156 208.351562 " fill-opacity="1" fill-rule="nonzero"/><path fill="#ffefab" d="M 115.425781 216.34375 C 116.347656 215.558594 117.144531 214.65625 118.085938 213.890625 C 118.777344 213.328125 119.542969 212.875 120.335938 212.472656 L 120.414062 212.453125 C 120.402344 212.453125 120.386719 212.453125 120.371094 212.453125 C 120.386719 212.449219 120.398438 212.441406 120.410156 212.433594 L 120.332031 212.457031 C 119.441406 212.503906 118.554688 212.484375 117.671875 212.339844 C 116.476562 212.144531 115.332031 211.753906 114.144531 211.527344 C 112.660156 211.25 111.328125 211.460938 109.898438 211.933594 C 107.105469 212.863281 105.648438 214.441406 104.070312 216.769531 L 104.050781 216.777344 C 104.054688 216.777344 104.058594 216.777344 104.0625 216.78125 C 104.0625 216.785156 104.058594 216.789062 104.054688 216.792969 L 104.074219 216.789062 C 106.605469 218.027344 108.652344 218.671875 111.539062 218.097656 C 113.015625 217.800781 114.277344 217.324219 115.425781 216.34375 " fill-opacity="1" fill-rule="nonzero"/><path fill="#ffefab" d="M 88.226562 212.703125 C 88.519531 211.53125 88.980469 210.417969 89.246094 209.238281 C 89.445312 208.367188 89.515625 207.484375 89.523438 206.59375 L 89.503906 206.515625 C 89.511719 206.527344 89.515625 206.539062 89.523438 206.554688 C 89.523438 206.539062 89.523438 206.523438 89.523438 206.507812 L 89.539062 206.59375 C 89.890625 207.40625 90.300781 208.195312 90.824219 208.921875 C 91.53125 209.902344 92.386719 210.75 93.117188 211.714844 C 94.027344 212.917969 94.429688 214.207031 94.636719 215.695312 C 95.039062 218.605469 94.273438 220.605469 92.882812 223.050781 L 92.886719 223.070312 C 92.882812 223.070312 92.878906 223.066406 92.875 223.0625 C 92.871094 223.066406 92.871094 223.070312 92.867188 223.074219 L 92.863281 223.054688 C 90.628906 221.34375 89.140625 219.800781 88.375 216.960938 C 87.988281 215.507812 87.855469 214.167969 88.226562 212.703125 " fill-opacity="1" fill-rule="nonzero"/><path fill="#ffefab" d="M 103.839844 226.167969 C 104.957031 225.710938 105.992188 225.09375 107.125 224.660156 C 107.957031 224.335938 108.824219 224.140625 109.703125 224.003906 L 109.789062 224.007812 C 109.773438 224.003906 109.757812 224 109.746094 223.996094 C 109.757812 223.996094 109.773438 223.992188 109.789062 223.992188 L 109.707031 223.988281 C 108.847656 223.757812 108.007812 223.464844 107.210938 223.054688 C 106.136719 222.5 105.167969 221.777344 104.109375 221.195312 C 102.78125 220.472656 101.449219 220.261719 99.945312 220.273438 C 97 220.296875 95.128906 221.34375 92.90625 223.074219 L 92.886719 223.070312 C 92.890625 223.074219 92.894531 223.078125 92.894531 223.082031 C 92.894531 223.085938 92.886719 223.085938 92.882812 223.089844 L 92.90625 223.089844 C 94.925781 225.050781 96.671875 226.296875 99.597656 226.636719 C 101.09375 226.8125 102.441406 226.75 103.839844 226.167969 " fill-opacity="1" fill-rule="nonzero"/><path fill="#ffefab" d="M 79.09375 214.316406 C 79.738281 213.296875 80.519531 212.378906 81.140625 211.335938 C 81.597656 210.570312 81.9375 209.75 82.21875 208.910156 L 82.230469 208.824219 C 82.230469 208.839844 82.230469 208.851562 82.234375 208.867188 C 82.238281 208.855469 82.242188 208.839844 82.246094 208.828125 L 82.238281 208.910156 C 82.320312 209.792969 82.464844 210.667969 82.738281 211.519531 C 83.105469 212.675781 83.65625 213.746094 84.054688 214.886719 C 84.546875 216.3125 84.53125 217.660156 84.265625 219.140625 C 83.75 222.03125 82.402344 223.699219 80.320312 225.59375 L 80.316406 225.617188 C 80.316406 225.613281 80.3125 225.609375 80.308594 225.605469 C 80.304688 225.609375 80.304688 225.609375 80.300781 225.613281 L 80.300781 225.59375 C 78.703125 223.273438 77.769531 221.347656 77.921875 218.414062 C 78 216.910156 78.289062 215.59375 79.09375 214.316406 " fill-opacity="1" fill-rule="nonzero"/><path fill="#ffefab" d="M 89.773438 231.941406 C 90.980469 231.847656 92.15625 231.582031 93.367188 231.519531 C 94.261719 231.46875 95.144531 231.550781 96.027344 231.691406 L 96.101562 231.722656 C 96.089844 231.714844 96.078125 231.707031 96.066406 231.699219 C 96.078125 231.699219 96.09375 231.703125 96.109375 231.703125 L 96.03125 231.675781 C 95.285156 231.191406 94.574219 230.65625 93.945312 230.019531 C 93.097656 229.160156 92.402344 228.171875 91.570312 227.296875 C 90.535156 226.195312 89.332031 225.585938 87.898438 225.128906 C 85.089844 224.242188 82.988281 224.664062 80.335938 225.625 L 80.316406 225.617188 C 80.320312 225.621094 80.320312 225.625 80.324219 225.628906 C 80.320312 225.628906 80.316406 225.632812 80.3125 225.632812 L 80.332031 225.640625 C 81.644531 228.128906 82.921875 229.851562 85.597656 231.078125 C 86.964844 231.707031 88.265625 232.058594 89.773438 231.941406 " fill-opacity="1" fill-rule="nonzero"/><path fill="#ffefab" d="M 82.878906 234.867188 C 82.625 234.191406 79.839844 229.90625 76.363281 226.816406 C 74.59375 225.097656 72.605469 224.230469 71.011719 223.765625 C 70.695312 223.605469 70.359375 223.457031 70.003906 223.320312 C 67.578125 222.453125 64.785156 222.492188 62.027344 221.949219 C 59.886719 221.367188 57.125 220.625 54.558594 219.523438 C 52.007812 218.484375 49.65625 216.152344 46.945312 214.027344 C 41.527344 209.785156 36.796875 203.570312 34.058594 195.777344 C 32.679688 191.929688 31.773438 187.765625 31.675781 183.492188 C 31.695312 179.300781 32.703125 174.871094 34.105469 170.714844 C 36.699219 162.058594 43.484375 155.59375 50.058594 149.757812 C 43.203125 155.085938 35.882812 161.457031 32.925781 170.28125 C 31.34375 174.5625 30.195312 178.925781 30.066406 183.5 C 30.074219 188 30.957031 192.355469 32.339844 196.382812 C 35.023438 204.453125 40.140625 211.203125 45.675781 215.519531 C 48.410156 217.65625 50.757812 220.039062 53.761719 221.308594 C 56.675781 222.535156 59.171875 223.183594 61.617188 223.851562 C 64.746094 224.441406 67.351562 224.402344 69.371094 225.117188 C 71.320312 225.832031 72.828125 227.148438 73.945312 228.34375 C 74.046875 228.457031 74.140625 228.566406 74.238281 228.679688 C 76.410156 232.449219 77.503906 236.523438 77.726562 237.070312 C 78.15625 238.183594 79.707031 238.691406 81.175781 238.214844 C 82.648438 237.734375 83.414062 236.234375 82.878906 234.867188 " fill-opacity="1" fill-rule="nonzero"/><path fill="#ffefab" d="M 117.191406 170.335938 C 114.242188 161.515625 106.960938 155.117188 100.132812 149.757812 C 106.675781 155.625 113.425781 162.117188 116.007812 170.769531 C 117.410156 174.929688 118.414062 179.351562 118.464844 183.546875 C 118.410156 187.820312 117.519531 191.988281 116.1875 195.851562 C 113.488281 203.640625 108.894531 209.96875 103.523438 214.25 C 100.871094 216.394531 98.4375 218.738281 95.984375 219.878906 C 93.449219 221.0625 90.730469 221.746094 88.539062 222.394531 C 85.835938 223.039062 83.050781 222.929688 80.625 223.746094 C 80.195312 223.886719 79.792969 224.046875 79.414062 224.21875 C 77.824219 224.582031 75.429688 225.386719 73.390625 227.441406 C 70.152344 230.390625 67.585938 234.445312 67.351562 235.078125 C 66.859375 236.367188 67.589844 237.773438 68.980469 238.214844 C 70.367188 238.652344 71.820312 238.160156 72.21875 237.109375 C 72.394531 236.65625 73.167969 233.691406 74.675781 230.574219 C 75.183594 229.9375 75.769531 229.273438 76.464844 228.582031 C 77.675781 227.511719 79.214844 226.148438 81.207031 225.566406 C 83.242188 224.875 85.875 225.003906 89.015625 224.285156 C 91.378906 223.582031 93.953125 222.964844 96.828125 221.644531 C 99.785156 220.226562 102.074219 217.929688 104.808594 215.734375 C 110.324219 211.351562 115.269531 204.515625 117.917969 196.441406 C 119.25 192.402344 120.117188 188.042969 120.078125 183.542969 C 119.914062 178.980469 118.777344 174.613281 117.191406 170.335938 " fill-opacity="1" fill-rule="nonzero"/></svg>